<svg xmlns="http://www.w3.org/2000/svg" viewBox="0 0 512 512"><!--!Font Awesome Free 6.5.2 by @fontawesome - https://fontawesome.com License - https://fontawesome.com/license/free Copyright 2024 Fonticons, Inc.--><path d="M505.1 19.1c-1.2-5.5-6.7-11-12.2-12.2C460.7 0 435.5 0 410.4 0 307.2 0 245.3 55.2 199.1 128H94.8c-16.3 0-35.6 11.9-42.9 26.5L2.5 253.3A28.4 28.4 0 0 0 0 264a24 24 0 0 0 24 24H127.8l-22.5 22.5c-11.4 11.4-13 32.3 0 45.3L156.2 406.6c11.2 11.2 32.2 13.2 45.3 0l22.5-22.5V488a24 24 0 0 0 24 24 28.6 28.6 0 0 0 10.7-2.5l98.7-49.4c14.6-7.3 26.5-26.5 26.5-42.9V312.8c72.6-46.3 128-108.4 128-211.1C512.1 76.5 512.1 51.3 505.1 19.1zM384 168A40 40 0 1 1 424.1 128 40 40 0 0 1 384 168z"/></svg>