<svg id="logosandtypes_com" data-name="logosandtypes com" xmlns="http://www.w3.org/2000/svg" viewBox="0 0 150 150"><defs><style>.cls-1{fill:none;}.cls-2{fill:#af0000;}.cls-3{fill:#e60000;}</style></defs><path class="cls-1" d="M0,.2H150v150H0Z" transform="translate(0 -0.2)"/><path class="cls-2" d="M91.42,104V38.2a2.31,2.31,0,0,0-2.31-2.31h-15a4.65,4.65,0,0,0-2.54.69L52.38,46.51a2.24,2.24,0,0,0-1.62,2.31V59.68A2.32,2.32,0,0,0,53.08,62H65.32v51.49c-20.26,10.48-43.65-3-51.75-20.3a66.87,66.87,0,0,1-2.54-18A64.3,64.3,0,0,1,55.62,13.94c25.64-5.54,55.83,3.69,62.64,26.28C132,85.9,89,105.33,91.42,104Z" transform="translate(0 -0.2)"/><path class="cls-3" d="M75,10.94a66.72,66.72,0,0,0-19.4,3C81.49,8.4,106.9,19,116.14,40.74c10.63,25.18-4.62,55.67-34,68.15C55.85,120,27,112.81,13.57,93.18A64.14,64.14,0,1,0,75,10.94Z" transform="translate(0 -0.2)"/></svg>